<svg width="16" height="16" viewBox="0 0 16 16" fill="none" xmlns="http://www.w3.org/2000/svg">
<g clip-path="url(#clip0_11357_9845)">
<path d="M10.7656 5C10.3125 2.20937 9.24375 0.25 8 0.25C6.75625 0.25 5.6875 2.20937 5.23438 5H10.7656ZM5 8C5 8.69375 5.0375 9.35938 5.10313 10H10.8938C10.9594 9.35938 10.9969 8.69375 10.9969 8C10.9969 7.30625 10.9594 6.64062 10.8938 6H5.10313C5.0375 6.64062 5 7.30625 5 8ZM15.1469 5C14.2531 2.87812 12.4438 1.2375 10.2094 0.575C10.9719 1.63125 11.4969 3.22187 11.7719 5H15.1469ZM5.7875 0.575C3.55625 1.2375 1.74375 2.87812 0.853125 5H4.22813C4.5 3.22187 5.025 1.63125 5.7875 0.575ZM15.4812 6H11.8969C11.9625 6.65625 12 7.32812 12 8C12 8.67188 11.9625 9.34375 11.8969 10H15.4781C15.65 9.35938 15.7469 8.69375 15.7469 8C15.7469 7.30625 15.65 6.64062 15.4812 6ZM4 8C4 7.32812 4.0375 6.65625 4.10313 6H0.51875C0.35 6.64062 0.25 7.30625 0.25 8C0.25 8.69375 0.35 9.35938 0.51875 10H4.1C4.0375 9.34375 4 8.67188 4 8ZM5.23438 11C5.6875 13.7906 6.75625 15.75 8 15.75C9.24375 15.75 10.3125 13.7906 10.7656 11H5.23438ZM10.2125 15.425C12.4437 14.7625 14.2562 13.1219 15.15 11H11.775C11.5 12.7781 10.975 14.3688 10.2125 15.425ZM0.853125 11C1.74688 13.1219 3.55625 14.7625 5.79063 15.425C5.02813 14.3688 4.50313 12.7781 4.22813 11H0.853125Z" fill="white"/>
</g>
<defs>
<clipPath id="clip0_11357_9845">
<rect width="16" height="16" fill="white"/>
</clipPath>
</defs>
</svg>
